<?xml version="1.0" encoding="UTF-8"?>
<svg xmlns="http://www.w3.org/2000/svg" xmlns:xlink="http://www.w3.org/1999/xlink" width="273px" height="134px" viewBox="0 0 273 134" version="1.1">
  <title>Group</title>
  <defs>
    <linearGradient x1="0%" y1="49.924812%" x2="100%" y2="49.924812%" id="linearGradient-1">
      <stop stop-color="#0089CF" offset="10%"></stop>
      <stop stop-color="#7E78B8" offset="50%"></stop>
      <stop stop-color="#C4161C" offset="90%"></stop>
    </linearGradient>
  </defs>
  <g id="Page-1" stroke="none" stroke-width="1" fill="none" fill-rule="evenodd">
    <g id="Group" fill-rule="nonzero">
      <g id="grafik3" transform="translate(-6, -70)" fill="url(#linearGradient-1)">
        <path d="M28.8,81.7 C39.3,74.8 51.8,70.9 65.2,70.9 C78.6,70.9 72.6,71.2 76.1,71.8 L76.1,89.7 L94.8,89.7 L94.8,120.4 C91.7,119.8 88.5,119.4 85.2,119.4 C79.1,119.4 73.2,120.5 67.7,122.8 C64.4,124.2 61.3,125.8 58.5,127.8 C57.5,126.9 56.3,126.1 55.1,125.4 C52.8,124.1 50.1,123.2 46.8,122.6 C50,120.6 52.5,118.1 54.1,115.2 C55.7,112.3 56.5,108.6 56.5,104.2 C56.5,96.9 54.4,91.4 50.2,87.5 C46,83.6 39.9,81.7 31.9,81.7 L28.8,81.7 L28.8,81.7 Z M24.9,116.1 C32,116.1 35.6,113.3 35.6,107.6 C35.6,101.9 32,99.1 24.9,99.1 L20.7,99.1 L20.7,116 L24.9,116 L24.9,116.1 Z M38,149.4 C40.5,147.9 41.7,145.6 41.7,142.3 C41.7,139 40.5,136.7 38,135.2 C35.5,133.7 31.4,133 25.7,133 L20.7,133 L20.7,151.6 L25.7,151.6 C31.4,151.6 35.5,150.9 38,149.4 L38,149.4 Z M117.6,157.9 L94.9,157.9 L94.9,142.8 C92.4,141.9 89.6,141.5 86.7,141.5 C83.8,141.5 80.1,142.1 77.2,143.4 C74.3,144.6 71.8,146.3 69.7,148.4 C67.6,150.5 66,153.1 64.8,156 C63.6,158.9 63,162.1 63,165.5 C63,168.9 63.6,172.2 64.8,175.1 C66,178 67.7,180.6 69.8,182.8 C71.9,185 74.4,186.7 77.3,187.9 C80.2,189.1 83.3,189.8 86.6,189.8 C93.9,189.8 100.4,186.7 106.2,180.5 L106.2,190 C121.8,177.8 131.9,158.8 131.9,137.5 C131.9,116.2 126.6,107.7 117.6,96.3 L117.6,157.9 L117.6,157.9 Z M53.2,198.8 C49,194.7 45.6,189.7 43,184.1 C40.9,179.4 39.7,174.4 39.3,169.1 C37.8,169.2 36.2,169.3 34.5,169.3 L6.7,169.3 C17.1,188.4 36.6,201.9 59.4,203.9 C57.2,202.4 55.2,200.7 53.3,198.9 L53.2,198.8 Z" id="Shape"></path>
      </g>
      <g id="text2" transform="translate(-6, -70)" fill="#77787B">
        <path d="M148.3,131.6 L150.7,131.6 C151.8,131.6 152.5,131.8 153,132.1 C153.5,132.4 153.8,133 153.8,133.7 C153.8,134.4 153.7,134.6 153.4,135 C153.1,135.4 152.7,135.6 152.2,135.7 L152.2,135.7 C152.8,135.8 153.3,136.1 153.6,136.4 C153.9,136.7 154.1,137.2 154.1,137.8 C154.1,138.4 154,138.8 153.7,139.2 C153.4,139.6 153.1,139.8 152.6,140 C152.1,140.2 151.6,140.3 151,140.3 L148.3,140.3 L148.3,131.7 L148.3,131.6 Z M149,135.4 L150.8,135.4 C151.6,135.4 152.2,135.3 152.5,135 C152.8,134.7 153,134.3 153,133.8 C153,133.3 152.8,132.9 152.4,132.6 C152,132.4 151.4,132.2 150.6,132.2 L148.9,132.2 L148.9,135.4 L149,135.4 Z M149,136 L149,139.6 L151,139.6 C152.6,139.6 153.3,139 153.3,137.7 C153.3,136.4 153.1,136.7 152.7,136.4 C152.3,136.1 151.7,136 150.9,136 L149.1,136 L149,136 Z" id="Shape"></path>
        <path d="M158,133.7 C158.7,133.7 159.3,133.9 159.6,134.2 C159.9,134.5 160.1,135.1 160.1,135.9 L160.1,140.2 L159.6,140.2 L159.6,139.1 L159.4,139.1 C159.2,139.5 158.9,139.8 158.6,140 C158.3,140.2 157.8,140.3 157.2,140.3 C156.6,140.3 156.1,140.1 155.8,139.8 C155.5,139.5 155.3,139.1 155.3,138.5 C155.3,137.9 155.6,137.4 156.1,137 C156.6,136.7 157.4,136.5 158.4,136.4 L159.6,136.4 L159.6,135.9 C159.6,135.3 159.5,134.8 159.2,134.6 C158.9,134.3 158.6,134.2 158.1,134.2 C157.6,134.2 157.5,134.2 157.2,134.3 C156.9,134.3 156.6,134.5 156.3,134.7 L156.1,134.1 C156.4,133.9 156.7,133.8 157.1,133.7 C157.5,133.7 157.8,133.6 158.2,133.6 L158,133.7 Z M159.4,137 L158.3,137 C157.5,137 156.9,137.2 156.5,137.5 C156.1,137.7 155.9,138.1 155.9,138.6 C155.9,139.1 156,139.3 156.3,139.5 C156.6,139.7 156.9,139.8 157.3,139.8 C158,139.8 158.5,139.6 158.8,139.2 C159.2,138.8 159.4,138.3 159.4,137.6 L159.4,137 L159.4,137 Z" id="Shape"></path>
        <path d="M161.1,133.8 L161.8,133.8 L163.3,137.8 C163.4,138.2 163.5,138.5 163.6,138.7 C163.6,139 163.8,139.2 163.8,139.4 L163.8,139.4 C163.8,139.2 163.9,139 164,138.7 C164,138.4 164.2,138.1 164.3,137.7 L165.8,133.7 L166.5,133.7 L163.6,141.2 C163.4,141.8 163.1,142.2 162.8,142.5 C162.5,142.8 162.1,143 161.6,143 C161.1,143 161.3,143 161.2,143 C161.1,143 161,143 160.9,143 L160.9,142.4 C161.1,142.4 161.3,142.5 161.6,142.5 C161.9,142.5 162.2,142.4 162.4,142.2 C162.6,142 162.8,141.7 163,141.3 L163.4,140.2 L160.9,133.8 L161.1,133.8 Z" id="Path"></path>
        <path d="M170.2,133.7 C170.7,133.7 171.2,133.8 171.6,134.1 C172,134.4 172.2,134.7 172.4,135.1 C172.6,135.5 172.7,136 172.7,136.6 L172.7,137.1 L168.1,137.1 C168.1,137.9 168.3,138.6 168.7,139 C169.1,139.5 169.7,139.7 170.4,139.7 C171.1,139.7 171.1,139.7 171.4,139.7 C171.7,139.7 172,139.5 172.4,139.4 L172.4,140 C172.1,140.1 171.8,140.2 171.5,140.3 C171.2,140.3 170.8,140.3 170.4,140.3 C169.4,140.3 168.7,140 168.2,139.4 C167.7,138.8 167.4,138 167.4,137 C167.4,136 167.5,135.8 167.7,135.3 C167.9,134.8 168.2,134.4 168.7,134.1 C169.2,133.8 169.6,133.7 170.2,133.7 L170.2,133.7 Z M170.2,134.3 C169.6,134.3 169.1,134.5 168.8,134.9 C168.5,135.3 168.2,135.8 168.2,136.6 L172,136.6 C172,135.9 171.9,135.4 171.6,135 C171.3,134.6 170.9,134.4 170.3,134.4 L170.2,134.3 Z" id="Shape"></path>
        <path d="M177,133.7 C177.3,133.7 177.6,133.7 177.9,133.8 L177.9,134.4 C177.7,134.4 177.5,134.4 177.4,134.4 C177.3,134.4 177.1,134.4 177,134.4 C176.4,134.4 175.9,134.6 175.6,135 C175.3,135.4 175.1,136 175.1,136.7 L175.1,140.2 L174.4,140.2 L174.4,133.8 L175,133.8 L175,135 L175.1,135 C175.3,134.6 175.5,134.3 175.8,134.1 C176.1,133.8 176.5,133.7 177,133.7 L177,133.7 Z" id="Path"></path>
        <path d="M179.4,131.5 C179.7,131.5 179.9,131.7 179.9,132 C179.9,132.3 179.7,132.5 179.4,132.5 C179.1,132.5 178.9,132.3 178.9,132 C178.9,131.7 179.1,131.5 179.4,131.5 Z M179.8,133.8 L179.8,140.2 L179.1,140.2 L179.1,133.8 L179.8,133.8 Z" id="Shape"></path>
        <path d="M185.9,138.5 C185.9,139.1 185.7,139.5 185.3,139.8 C184.9,140.1 184.3,140.3 183.5,140.3 C182.7,140.3 182.7,140.3 182.3,140.2 C182,140.2 181.7,140 181.4,139.9 L181.4,139.2 C181.7,139.3 182,139.5 182.4,139.6 C182.8,139.7 183.1,139.7 183.5,139.7 C184.1,139.7 184.6,139.6 184.9,139.4 C185.2,139.2 185.3,138.9 185.3,138.5 C185.3,138.1 185.2,137.9 184.9,137.7 C184.6,137.5 184.2,137.3 183.6,137.1 C183.2,137 182.9,136.8 182.6,136.7 C182.3,136.6 182.1,136.4 181.9,136.2 C181.7,136 181.6,135.7 181.6,135.3 C181.6,134.9 181.8,134.4 182.2,134.1 C182.6,133.8 183.2,133.7 183.9,133.7 C184.6,133.7 184.6,133.7 185,133.8 C185.4,133.9 185.6,134 185.9,134.1 L185.7,134.7 C185.5,134.6 185.2,134.5 184.9,134.4 C184.6,134.4 184.3,134.3 184,134.3 C183.5,134.3 183.1,134.3 182.8,134.6 C182.5,134.9 182.4,135 182.4,135.4 C182.4,135.8 182.4,135.9 182.6,136 C182.7,136.1 182.9,136.3 183.2,136.4 C183.5,136.5 183.8,136.6 184.1,136.8 C184.5,136.9 184.8,137.1 185.1,137.2 C185.4,137.3 185.7,137.5 185.8,137.8 C186,138 186.1,138.3 186.1,138.7 L185.9,138.5 Z" id="Path"></path>
        <path d="M190.1,140.3 C189.2,140.3 188.4,140 187.9,139.4 C187.4,138.8 187.1,138 187.1,137 C187.1,136 187.2,135.7 187.5,135.2 C187.8,134.7 188.1,134.3 188.6,134.1 C189.1,133.8 189.6,133.7 190.2,133.7 C190.8,133.7 190.8,133.7 191.1,133.7 C191.4,133.7 191.6,133.8 191.8,133.9 L191.6,134.5 C191.2,134.3 190.7,134.2 190.2,134.2 C189.4,134.2 188.9,134.4 188.5,134.9 C188.1,135.4 187.9,136.1 187.9,136.9 C187.9,137.7 188.1,138.3 188.4,138.8 C188.7,139.3 189.3,139.5 190.1,139.5 C190.9,139.5 190.7,139.5 191,139.5 C191.3,139.5 191.5,139.4 191.8,139.2 L191.8,139.8 C191.6,139.9 191.4,140 191.1,140 C190.8,140 190.5,140 190.2,140 L190.1,140.3 Z" id="Path"></path>
        <path d="M193.9,131.1 L193.9,134 C193.9,134.3 193.9,134.6 193.9,134.9 L193.9,134.9 C194.1,134.5 194.3,134.3 194.7,134 C195.1,133.8 195.5,133.7 196.1,133.7 C196.7,133.7 197.4,133.9 197.8,134.3 C198.2,134.7 198.4,135.3 198.4,136.1 L198.4,140.3 L197.7,140.3 L197.7,136.2 C197.7,135.6 197.6,135.1 197.3,134.9 C197,134.6 196.6,134.5 196.1,134.5 C194.7,134.5 194,135.3 194,136.9 L194,140.4 L193.3,140.4 L193.3,131.3 L194,131.3 L193.9,131.1 Z" id="Path"></path>
        <polygon id="Path" points="199.8 137.3 199.8 136.7 202.7 136.7 202.7 137.3"></polygon>
        <path d="M210.2,140.2 L209.4,140.2 L206.1,135.8 L205,136.8 L205,140.2 L204.3,140.2 L204.3,131.6 L205,131.6 L205,136.1 C205.2,135.9 205.3,135.7 205.5,135.5 C205.7,135.3 205.9,135.1 206,134.9 L209.2,131.6 L210.1,131.6 L206.6,135.2 L210.2,140.1 L210.2,140.2 Z" id="Path"></path>
        <path d="M213.5,133.7 C214.2,133.7 214.8,133.9 215.1,134.2 C215.5,134.6 215.6,135.1 215.6,135.9 L215.6,140.2 L215.1,140.2 L215.1,139.1 L214.9,139.1 C214.7,139.5 214.4,139.8 214.1,140 C213.8,140.2 213.3,140.3 212.7,140.3 C212.1,140.3 211.6,140.1 211.3,139.8 C210.9,139.5 210.8,139.1 210.8,138.5 C210.8,137.9 211.1,137.4 211.6,137 C212.1,136.7 212.9,136.5 213.9,136.4 L215.1,136.4 L215.1,135.9 C215.1,135.3 215,134.8 214.7,134.6 C214.4,134.3 214.1,134.2 213.6,134.2 C213.1,134.2 213,134.2 212.7,134.3 C212.4,134.3 212.1,134.5 211.8,134.7 L211.6,134.1 C211.9,133.9 212.2,133.8 212.6,133.7 C213,133.7 213.3,133.6 213.7,133.6 L213.5,133.7 Z M215,137 L213.9,137 C213.1,137 212.5,137.2 212.1,137.5 C211.7,137.8 211.5,138.1 211.5,138.6 C211.5,139.1 211.6,139.3 211.9,139.5 C212.2,139.7 212.5,139.8 212.9,139.8 C213.6,139.8 214.1,139.6 214.4,139.2 C214.7,138.8 215,138.3 215,137.6 L215,137 L215,137 Z" id="Shape"></path>
        <polygon id="Path" points="218.4 140.2 217.7 140.2 217.7 131.1 218.4 131.1"></polygon>
        <path d="M220.8,131.5 C221.1,131.5 221.3,131.7 221.3,132 C221.3,132.3 221.1,132.5 220.8,132.5 C220.5,132.5 220.3,132.3 220.3,132 C220.3,131.7 220.5,131.5 220.8,131.5 Z M221.2,133.8 L221.2,140.2 L220.5,140.2 L220.5,133.8 L221.2,133.8 Z" id="Shape"></path>
        <path d="M225.8,134.4 L224.3,134.4 L224.3,140.2 L223.6,140.2 L223.6,134.4 L222.4,134.4 L222.4,134 L223.6,133.8 L223.6,133.2 C223.6,132.5 223.8,131.9 224.1,131.6 C224.4,131.3 224.9,131.1 225.5,131.1 C226.1,131.1 225.9,131.1 226.1,131.1 C226.3,131.1 226.5,131.1 226.6,131.2 L226.4,131.8 C226.3,131.8 226.1,131.8 225.9,131.7 C225.7,131.6 225.6,131.7 225.4,131.7 C225,131.7 224.7,131.8 224.5,132.1 C224.3,132.4 224.2,132.7 224.2,133.3 L224.2,134 L225.7,134 L225.7,134.6 L225.8,134.4 Z" id="Path"></path>
        <path d="M232.3,137 C232.3,137.7 232.2,138.2 232,138.7 C231.8,139.2 231.5,139.6 231,139.9 C230.5,140.2 230,140.3 229.4,140.3 C228.8,140.3 228.3,140.2 227.9,139.9 C227.5,139.6 227.1,139.2 226.9,138.7 C226.7,138.2 226.6,137.6 226.6,136.9 C226.6,135.9 226.9,135 227.4,134.5 C227.9,133.9 228.6,133.6 229.5,133.6 C230.4,133.6 230.6,133.7 231,134 C231.4,134.3 231.7,134.7 232,135.2 C232.2,135.7 232.3,136.3 232.3,136.9 L232.3,137 Z M227.3,137 C227.3,137.8 227.5,138.5 227.8,139 C228.1,139.5 228.7,139.8 229.4,139.8 C230.1,139.8 230.7,139.6 231,139 C231.3,138.5 231.5,137.8 231.5,137 C231.5,136.2 231.5,136 231.3,135.6 C231.2,135.2 230.9,134.9 230.6,134.6 C230.3,134.4 229.9,134.3 229.4,134.3 C228.7,134.3 228.1,134.5 227.8,135 C227.4,135.5 227.3,136.1 227.3,137 L227.3,137 Z" id="Shape"></path>
        <path d="M236.7,133.7 C237,133.7 237.3,133.7 237.6,133.8 L237.6,134.4 C237.4,134.4 237.2,134.4 237.1,134.4 C237,134.4 236.8,134.4 236.7,134.4 C236.1,134.4 235.6,134.6 235.3,135 C235,135.4 234.8,136 234.8,136.7 L234.8,140.2 L234.1,140.2 L234.1,133.8 L234.7,133.8 L234.7,135 L234.8,135 C235,134.6 235.2,134.3 235.5,134.1 C235.8,133.8 236.2,133.7 236.7,133.7 L236.7,133.7 Z" id="Path"></path>
        <path d="M241.7,133.7 C242.4,133.7 243,133.9 243.4,134.3 C243.8,134.7 244,135.3 244,136.1 L244,140.3 L243.3,140.3 L243.3,136.2 C243.3,135.6 243.2,135.1 242.9,134.9 C242.6,134.6 242.2,134.5 241.7,134.5 C240.3,134.5 239.6,135.3 239.6,136.9 L239.6,140.4 L238.9,140.4 L238.9,134 L239.5,134 L239.5,135.1 L239.6,135.1 C239.8,134.7 240,134.5 240.4,134.2 C240.8,134 241.2,133.9 241.8,133.9 L241.7,133.7 Z" id="Path"></path>
        <path d="M246.3,131.5 C246.6,131.5 246.8,131.7 246.8,132 C246.8,132.3 246.6,132.5 246.3,132.5 C246,132.5 245.8,132.3 245.8,132 C245.8,131.7 246,131.5 246.3,131.5 Z M246.6,133.8 L246.6,140.2 L245.9,140.2 L245.9,133.8 L246.6,133.8 Z" id="Shape"></path>
        <path d="M252.8,138.5 C252.8,139.1 252.6,139.5 252.2,139.8 C251.8,140.1 251.2,140.3 250.4,140.3 C249.6,140.3 249.6,140.3 249.2,140.2 C248.8,140.1 248.6,140 248.3,139.9 L248.3,139.2 C248.6,139.3 248.9,139.5 249.3,139.6 C249.7,139.6 250,139.7 250.4,139.7 C251,139.7 251.5,139.6 251.8,139.4 C252.1,139.2 252.2,138.9 252.2,138.5 C252.2,138.1 252.1,137.9 251.8,137.7 C251.5,137.5 251.1,137.3 250.5,137.1 C250.1,137 249.8,136.8 249.5,136.7 C249.2,136.6 249,136.4 248.8,136.2 C248.6,136 248.5,135.7 248.5,135.3 C248.5,134.9 248.7,134.4 249.1,134.1 C249.5,133.8 250.1,133.7 250.8,133.7 C251.5,133.7 251.5,133.7 251.9,133.8 C252.2,133.8 252.5,134 252.8,134.1 L252.6,134.7 C252.4,134.6 252.1,134.5 251.8,134.4 C251.5,134.4 251.2,134.3 250.9,134.3 C250.4,134.3 250,134.3 249.7,134.6 C249.4,134.8 249.3,135 249.3,135.4 C249.3,135.8 249.3,135.9 249.5,136 C249.6,136.1 249.8,136.3 250.1,136.4 C250.4,136.5 250.7,136.6 251,136.8 C251.4,136.9 251.7,137.1 252,137.2 C252.3,137.3 252.6,137.5 252.7,137.8 C252.9,138 253,138.3 253,138.7 L252.8,138.5 Z" id="Path"></path>
        <path d="M256.9,140.3 C256,140.3 255.2,140 254.7,139.4 C254.2,138.8 253.9,138 253.9,137 C253.9,136 254,135.7 254.3,135.2 C254.6,134.7 254.9,134.3 255.4,134.1 C255.9,133.8 256.4,133.7 257,133.7 C257.6,133.7 257.6,133.7 257.9,133.7 C258.2,133.7 258.4,133.8 258.6,133.9 L258.4,134.5 C258,134.3 257.5,134.2 257,134.2 C256.2,134.2 255.7,134.4 255.3,134.9 C254.9,135.4 254.7,136.1 254.7,136.9 C254.7,137.7 254.9,138.3 255.2,138.8 C255.6,139.3 256.1,139.5 256.9,139.5 C257.7,139.5 257.5,139.5 257.8,139.5 C258.1,139.5 258.3,139.4 258.6,139.2 L258.6,139.8 C258.4,139.9 258.2,140 257.9,140 C257.6,140 257.3,140 257,140 L256.9,140.3 Z" id="Path"></path>
        <path d="M260.7,131.1 L260.7,134 C260.7,134.3 260.7,134.6 260.7,134.9 L260.7,134.9 C260.9,134.5 261.1,134.3 261.5,134 C261.9,133.8 262.3,133.7 262.9,133.7 C263.5,133.7 264.2,133.9 264.6,134.3 C265,134.7 265.2,135.3 265.2,136.1 L265.2,140.3 L264.5,140.3 L264.5,136.2 C264.5,135.6 264.4,135.1 264.1,134.9 C263.8,134.6 263.4,134.5 262.9,134.5 C261.5,134.5 260.8,135.3 260.8,136.9 L260.8,140.4 L260.1,140.4 L260.1,131.3 L260.8,131.3 L260.7,131.1 Z" id="Path"></path>
        <path d="M269.6,133.7 C270.1,133.7 270.6,133.8 271,134.1 C271.4,134.4 271.6,134.7 271.8,135.1 C272,135.5 272.1,136 272.1,136.6 L272.1,137.1 L267.5,137.1 C267.5,137.9 267.7,138.6 268.1,139 C268.5,139.5 269.1,139.7 269.8,139.7 C270.5,139.7 270.5,139.7 270.8,139.7 C271.1,139.7 271.4,139.5 271.8,139.4 L271.8,140 C271.5,140.1 271.2,140.2 270.9,140.3 C270.6,140.3 270.2,140.3 269.8,140.3 C268.8,140.3 268.1,140 267.6,139.4 C267.1,138.8 266.8,138 266.8,137 C266.8,136 266.9,135.8 267.1,135.3 C267.3,134.8 267.6,134.4 268.1,134.1 C268.6,133.8 269,133.7 269.6,133.7 Z M269.6,134.3 C269,134.3 268.5,134.5 268.2,134.9 C267.9,135.3 267.6,135.8 267.6,136.6 L271.4,136.6 C271.4,135.9 271.3,135.4 271,135 C270.7,134.6 270.3,134.4 269.7,134.4 L269.6,134.3 Z" id="Shape"></path>
        <path d="M277.9,138.5 C277.9,139.1 277.7,139.5 277.3,139.8 C276.9,140.1 276.3,140.3 275.5,140.3 C274.7,140.3 274.7,140.3 274.3,140.2 C274,140.2 273.7,140 273.4,139.9 L273.4,139.2 C273.7,139.3 274,139.5 274.4,139.6 C274.8,139.7 275.1,139.7 275.5,139.7 C276.1,139.7 276.6,139.6 276.9,139.4 C277.2,139.2 277.3,138.9 277.3,138.5 C277.3,138.1 277.2,137.9 276.9,137.7 C276.6,137.5 276.2,137.3 275.6,137.1 C275.2,137 274.9,136.8 274.6,136.7 C274.3,136.6 274.1,136.4 273.9,136.2 C273.7,136 273.6,135.7 273.6,135.3 C273.6,134.9 273.8,134.4 274.2,134.1 C274.6,133.8 275.2,133.7 275.9,133.7 C276.6,133.7 276.6,133.7 277,133.8 C277.4,133.9 277.6,134 277.9,134.1 L277.7,134.7 C277.5,134.6 277.2,134.5 276.9,134.4 C276.6,134.4 276.3,134.3 276,134.3 C275.5,134.3 275.1,134.3 274.8,134.6 C274.5,134.9 274.4,135 274.4,135.4 C274.4,135.8 274.4,135.9 274.6,136 C274.7,136.1 274.9,136.3 275.2,136.4 C275.5,136.5 275.8,136.6 276.1,136.8 C276.5,136.9 276.8,137.1 277.1,137.2 C277.4,137.3 277.7,137.5 277.8,137.8 C278,138 278.1,138.3 278.1,138.7 L277.9,138.5 Z" id="Path"></path>
        <polygon id="Path" points="154.5 154.6 153.8 154.6 153.8 150.4 148.9 150.4 148.9 154.6 148.2 154.6 148.2 146 148.9 146 148.9 149.8 153.8 149.8 153.8 146 154.5 146"></polygon>
        <path d="M162.1,151.4 C162.1,152.1 162,152.6 161.8,153.1 C161.6,153.6 161.3,154 160.8,154.3 C160.4,154.6 159.8,154.7 159.2,154.7 C158.6,154.7 158.1,154.6 157.7,154.3 C157.3,154 156.9,153.6 156.7,153.1 C156.5,152.6 156.4,152 156.4,151.3 C156.4,150.3 156.7,149.4 157.2,148.9 C157.7,148.3 158.4,148 159.3,148 C160.2,148 160.4,148.1 160.8,148.4 C161.2,148.7 161.5,149.1 161.8,149.6 C162.1,150.1 162.1,150.7 162.1,151.3 L162.1,151.4 Z M157.1,151.4 C157.1,152.2 157.3,152.9 157.6,153.4 C157.9,153.9 158.5,154.2 159.2,154.2 C159.9,154.2 160.5,154 160.8,153.4 C161.1,152.9 161.3,152.2 161.3,151.4 C161.3,150.6 161.3,150.4 161.1,150 C161,149.6 160.7,149.3 160.4,149 C160.1,148.8 159.7,148.7 159.2,148.7 C158.5,148.7 157.9,148.9 157.6,149.4 C157.2,149.9 157.1,150.5 157.1,151.4 L157.1,151.4 Z" id="Shape"></path>
        <path d="M166.4,154.7 C165.5,154.7 164.7,154.4 164.2,153.8 C163.7,153.2 163.4,152.4 163.4,151.4 C163.4,150.4 163.5,150.1 163.8,149.6 C164.1,149.1 164.4,148.7 164.9,148.5 C165.4,148.2 165.9,148.1 166.5,148.1 C167.1,148.1 167.1,148.1 167.4,148.1 C167.7,148.1 167.9,148.2 168.1,148.3 L167.9,148.9 C167.5,148.7 167,148.6 166.5,148.6 C165.7,148.6 165.2,148.8 164.8,149.3 C164.4,149.8 164.2,150.5 164.2,151.3 C164.2,152.1 164.4,152.7 164.7,153.2 C165.1,153.7 165.6,153.9 166.4,153.9 C167.2,153.9 167,153.9 167.3,153.9 C167.6,153.9 167.8,153.8 168.1,153.6 L168.1,154.2 C167.9,154.3 167.7,154.4 167.4,154.4 C167.1,154.4 166.8,154.4 166.5,154.4 L166.4,154.7 Z" id="Path"></path>
        <path d="M170.3,145.5 L170.3,148.4 C170.3,148.7 170.3,149 170.3,149.3 L170.3,149.3 C170.5,148.9 170.7,148.7 171.1,148.4 C171.5,148.2 171.9,148.1 172.5,148.1 C173.1,148.1 173.8,148.3 174.2,148.7 C174.6,149.1 174.8,149.7 174.8,150.5 L174.8,154.7 L174.1,154.7 L174.1,150.6 C174.1,150 174,149.5 173.7,149.3 C173.4,149 173,148.9 172.5,148.9 C171.1,148.9 170.4,149.7 170.4,151.3 L170.4,154.8 L169.7,154.8 L169.7,145.7 L170.4,145.7 L170.3,145.5 Z" id="Path"></path>
        <path d="M180.8,152.9 C180.8,153.5 180.6,153.9 180.2,154.2 C179.8,154.5 179.2,154.7 178.4,154.7 C177.6,154.7 177.6,154.7 177.2,154.6 C176.9,154.6 176.6,154.4 176.3,154.3 L176.3,153.6 C176.6,153.7 176.9,153.9 177.3,154 C177.7,154.1 178,154.1 178.4,154.1 C179,154.1 179.5,154 179.8,153.8 C180.1,153.6 180.2,153.3 180.2,152.9 C180.2,152.5 180.1,152.3 179.8,152.1 C179.5,151.9 179.1,151.7 178.5,151.5 C178.1,151.4 177.8,151.2 177.5,151.1 C177.2,151 177,150.8 176.8,150.6 C176.6,150.4 176.5,150.1 176.5,149.7 C176.5,149.3 176.7,148.8 177.1,148.5 C177.5,148.2 178.1,148.1 178.8,148.1 C179.5,148.1 179.5,148.1 179.9,148.2 C180.3,148.3 180.5,148.4 180.8,148.5 L180.6,149.1 C180.4,149 180.1,148.9 179.8,148.8 C179.5,148.8 179.2,148.7 178.9,148.7 C178.4,148.7 178,148.7 177.7,149 C177.4,149.3 177.3,149.4 177.3,149.8 C177.3,150.2 177.3,150.3 177.5,150.4 C177.6,150.5 177.8,150.7 178.1,150.8 C178.4,150.9 178.7,151 179,151.2 C179.4,151.3 179.7,151.5 180,151.6 C180.3,151.7 180.6,151.9 180.7,152.2 C180.9,152.4 181,152.7 181,153.1 L180.8,152.9 Z" id="Path"></path>
        <path d="M184.9,154.7 C184,154.7 183.2,154.4 182.7,153.8 C182.2,153.2 181.9,152.4 181.9,151.4 C181.9,150.4 182,150.1 182.3,149.6 C182.6,149.1 182.9,148.7 183.4,148.5 C183.9,148.2 184.4,148.1 185,148.1 C185.6,148.1 185.6,148.1 185.9,148.1 C186.2,148.1 186.4,148.2 186.6,148.3 L186.4,148.9 C186,148.7 185.5,148.6 185,148.6 C184.2,148.6 183.7,148.8 183.3,149.3 C182.9,149.8 182.7,150.5 182.7,151.3 C182.7,152.1 182.9,152.7 183.2,153.2 C183.6,153.7 184.1,153.9 184.9,153.9 C185.7,153.9 185.5,153.9 185.8,153.9 C186.1,153.9 186.3,153.8 186.6,153.6 L186.6,154.2 C186.4,154.3 186.2,154.4 185.9,154.4 C185.6,154.4 185.3,154.4 185,154.4 L184.9,154.7 Z" id="Path"></path>
        <path d="M188.7,145.5 L188.7,148.4 C188.7,148.7 188.7,149 188.7,149.3 L188.7,149.3 C188.9,148.9 189.1,148.7 189.5,148.4 C189.9,148.2 190.3,148.1 190.9,148.1 C191.5,148.1 192.2,148.3 192.6,148.7 C193,149.1 193.2,149.7 193.2,150.5 L193.2,154.7 L192.5,154.7 L192.5,150.6 C192.5,150 192.4,149.5 192.1,149.3 C191.8,149 191.4,148.9 190.9,148.9 C189.5,148.9 188.8,149.7 188.8,151.3 L188.8,154.8 L188.1,154.8 L188.1,145.7 L188.8,145.7 L188.7,145.5 Z" id="Path"></path>
        <path d="M200.3,148.2 L200.3,154.6 L199.7,154.6 L199.7,153.5 L199.6,153.5 C199.4,153.8 199.2,154.1 198.8,154.4 C198.4,154.6 198,154.7 197.4,154.7 C195.9,154.7 195.1,153.9 195.1,152.4 L195.1,148.2 L195.8,148.2 L195.8,152.3 C195.8,152.9 195.9,153.4 196.2,153.6 C196.5,153.9 196.9,154 197.4,154 C198.8,154 199.5,153.2 199.5,151.6 L199.5,148.1 L200.2,148.1 L200.3,148.2 Z" id="Path"></path>
        <polygon id="Path" points="203.1 154.6 202.4 154.6 202.4 145.5 203.1 145.5"></polygon>
        <polygon id="Path" points="209.2 154.6 204.6 154.6 204.6 154.2 208.3 148.8 204.8 148.8 204.8 148.2 209.1 148.2 209.1 148.7 205.4 154.1 209.2 154.1 209.2 154.7"></polygon>
        <path d="M213.1,148.1 C213.6,148.1 214.1,148.2 214.5,148.5 C214.9,148.8 215.1,149.1 215.3,149.5 C215.5,149.9 215.6,150.4 215.6,151 L215.6,151.5 L211,151.5 C211,152.3 211.2,153 211.6,153.4 C212,153.9 212.6,154.1 213.3,154.1 C214,154.1 214,154.1 214.3,154.1 C214.6,154.1 214.9,153.9 215.3,153.8 L215.3,154.4 C215,154.5 214.7,154.6 214.4,154.7 C214.1,154.7 213.7,154.7 213.3,154.7 C212.3,154.7 211.6,154.4 211.1,153.8 C210.6,153.2 210.3,152.4 210.3,151.4 C210.3,150.4 210.4,150.2 210.6,149.7 C210.8,149.2 211.1,148.8 211.6,148.5 C212.1,148.2 212.5,148.1 213.1,148.1 L213.1,148.1 Z M213.1,148.7 C212.5,148.7 212,148.9 211.7,149.3 C211.4,149.7 211.1,150.2 211.1,151 L214.9,151 C214.9,150.3 214.8,149.8 214.5,149.4 C214.2,149 213.8,148.8 213.2,148.8 L213.1,148.7 Z" id="Shape"></path>
        <path d="M220.2,148.1 C220.9,148.1 221.5,148.3 221.9,148.7 C222.3,149.1 222.5,149.7 222.5,150.5 L222.5,154.7 L221.8,154.7 L221.8,150.6 C221.8,150 221.7,149.5 221.4,149.3 C221.1,149 220.7,148.9 220.2,148.9 C218.8,148.9 218.1,149.7 218.1,151.3 L218.1,154.8 L217.4,154.8 L217.4,148.4 L218,148.4 L218,149.5 L218.1,149.5 C218.3,149.1 218.5,148.9 218.9,148.6 C219.3,148.4 219.7,148.3 220.3,148.3 L220.2,148.1 Z" id="Path"></path>
        <path d="M226.3,154.1 C226.5,154.1 226.6,154.1 226.8,154.1 C227,154.1 227.1,154.1 227.2,154 L227.2,154.6 C227.1,154.6 226.9,154.6 226.8,154.7 C226.6,154.7 226.4,154.7 226.2,154.7 C225.7,154.7 225.3,154.5 225,154.2 C224.7,153.9 224.6,153.4 224.6,152.8 L224.6,148.7 L223.7,148.7 L223.7,148.3 L224.6,148.1 L224.8,146.6 L225.2,146.6 L225.2,148.1 L227.2,148.1 L227.2,148.7 L225.2,148.7 L225.2,152.7 C225.2,153.6 225.6,154 226.3,154 L226.3,154.1 Z" id="Path"></path>
        <path d="M231.2,148.1 C231.5,148.1 231.8,148.1 232.1,148.2 L232.1,148.8 C231.9,148.8 231.7,148.8 231.6,148.8 C231.5,148.8 231.3,148.8 231.2,148.8 C230.6,148.8 230.1,149 229.8,149.4 C229.5,149.8 229.3,150.4 229.3,151.1 L229.3,154.6 L228.6,154.6 L228.6,148.2 L229.2,148.2 L229.2,149.4 L229.3,149.4 C229.5,149 229.7,148.7 230,148.5 C230.3,148.2 230.7,148.1 231.2,148.1 L231.2,148.1 Z" id="Path"></path>
        <path d="M238.3,148.2 L238.3,154.6 L237.7,154.6 L237.7,153.5 L237.6,153.5 C237.4,153.8 237.2,154.1 236.8,154.4 C236.4,154.6 236,154.7 235.4,154.7 C233.9,154.7 233.1,153.9 233.1,152.4 L233.1,148.2 L233.8,148.2 L233.8,152.3 C233.8,152.9 233.9,153.4 234.2,153.6 C234.5,153.9 234.9,154 235.4,154 C236.8,154 237.5,153.2 237.5,151.6 L237.5,148.1 L238.2,148.1 L238.3,148.2 Z" id="Path"></path>
        <path d="M247.1,148.1 C247.7,148.1 248.2,148.3 248.6,148.6 C249,149 249.1,149.5 249.1,150.3 L249.1,154.6 L248.4,154.6 L248.4,150.4 C248.4,149.8 248.3,149.4 248,149.1 C247.7,148.8 247.4,148.7 246.9,148.7 C246.4,148.7 245.8,148.9 245.5,149.2 C245.2,149.6 245,150.1 245,150.9 L245,154.6 L244.3,154.6 L244.3,150.4 C244.3,149.8 244.2,149.4 243.9,149.1 C243.6,148.8 243.3,148.7 242.8,148.7 C242.3,148.7 241.7,148.9 241.4,149.3 C241.1,149.7 240.9,150.2 240.9,151 L240.9,154.6 L240.2,154.6 L240.2,148.2 L240.8,148.2 L240.8,149.2 L240.9,149.2 C241.1,148.9 241.3,148.6 241.6,148.4 C241.9,148.2 242.3,148.1 242.8,148.1 C243.3,148.1 243.7,148.1 244,148.4 C244.3,148.6 244.5,148.9 244.7,149.3 L244.7,149.3 C244.9,148.9 245.1,148.6 245.5,148.4 C245.9,148.2 246.3,148.1 246.8,148.1 L247.1,148.1 Z" id="Path"></path>
        <path d="M147.6,169 L149.4,160.4 L151.6,160.4 C153.2,160.4 154,161 154,162.2 C154,163.4 153.8,163.3 153.5,163.7 C153.1,164.1 152.7,164.3 152.1,164.4 L152.1,164.4 C152.5,164.6 152.9,164.8 153.1,165.1 C153.3,165.4 153.5,165.8 153.5,166.3 C153.5,166.8 153.4,167.4 153.1,167.8 C152.8,168.2 152.4,168.5 151.9,168.7 C151.4,168.9 150.8,169 150.2,169 L147.7,169 L147.6,169 Z M148.4,168.4 L150.2,168.4 C150.7,168.4 151.1,168.4 151.5,168.2 C151.9,168.1 152.2,167.8 152.4,167.5 C152.6,167.2 152.7,166.8 152.7,166.3 C152.7,165.8 152.5,165.4 152.2,165.2 C151.9,164.9 151.4,164.8 150.8,164.8 L149.2,164.8 L148.4,168.4 L148.4,168.4 Z M149.3,164.2 L151,164.2 C151.7,164.2 152.2,164 152.7,163.7 C153.1,163.4 153.4,162.9 153.4,162.3 C153.4,161.7 153.3,161.6 153,161.3 C152.7,161 152.2,161 151.6,161 L150.1,161 L149.4,164.2 L149.3,164.2 Z" id="Shape"></path>
        <path d="M156.6,169.1 C156.1,169.1 155.6,168.9 155.3,168.5 C155,168.1 154.8,167.6 154.8,166.9 C154.8,166.2 154.8,165.8 155,165.3 C155.1,164.8 155.4,164.3 155.6,163.9 C155.8,163.5 156.2,163.1 156.6,162.9 C157,162.7 157.4,162.5 157.9,162.5 C158.4,162.5 158.5,162.5 158.7,162.7 C158.9,162.8 159.1,163 159.2,163.2 C159.3,163.4 159.4,163.6 159.5,163.8 L159.5,163.8 L159.9,162.6 L160.4,162.6 L159.1,169 L158.5,169 L158.7,167.6 L158.7,167.6 C158.5,167.8 158.3,168.1 158.1,168.3 C157.9,168.5 157.6,168.7 157.3,168.9 C157,169.1 156.7,169.1 156.3,169.1 L156.6,169.1 Z M156.8,168.5 C157.1,168.5 157.5,168.4 157.8,168.1 C158.1,167.8 158.4,167.5 158.7,167.1 C159,166.7 159.2,166.2 159.3,165.7 C159.3,165.5 159.4,165.3 159.4,165.1 C159.4,164.9 159.4,164.7 159.4,164.6 C159.4,164.1 159.3,163.7 159,163.5 C158.8,163.2 158.4,163.1 158,163.1 C157.6,163.1 157.3,163.2 156.9,163.4 C156.6,163.6 156.3,163.9 156.1,164.3 C155.9,164.7 155.7,165.1 155.6,165.5 C155.5,166 155.4,166.4 155.4,166.9 C155.4,167.4 155.5,167.8 155.7,168.1 C155.9,168.4 156.2,168.5 156.6,168.5 L156.8,168.5 Z" id="Shape"></path>
        <path d="M162.4,169 L161.5,162.6 L162.2,162.6 L162.7,166.7 C162.7,167 162.7,167.3 162.7,167.6 C162.7,167.9 162.7,168.2 162.7,168.3 L162.7,168.3 C162.8,168.1 162.9,167.8 163.1,167.5 C163.2,167.2 163.4,166.9 163.5,166.7 L165.8,162.6 L166.5,162.6 L162.9,169 L162.1,169 L162.4,169 Z" id="Path"></path>
        <path d="M168.5,169.1 C168,169.1 167.5,168.9 167.2,168.5 C166.9,168.1 166.7,167.6 166.7,166.9 C166.7,166.2 166.7,165.8 166.9,165.3 C167,164.8 167.3,164.3 167.5,163.9 C167.8,163.5 168.1,163.1 168.5,162.9 C168.9,162.7 169.3,162.5 169.8,162.5 C170.3,162.5 170.4,162.5 170.6,162.7 C170.8,162.8 171,163 171.1,163.2 C171.2,163.4 171.3,163.6 171.4,163.8 L171.4,163.8 L171.8,162.6 L172.3,162.6 L171,169 L170.4,169 L170.6,167.6 L170.6,167.6 C170.4,167.8 170.2,168.1 170,168.3 C169.8,168.5 169.5,168.7 169.2,168.9 C168.9,169.1 168.6,169.1 168.2,169.1 L168.5,169.1 Z M168.7,168.5 C169,168.5 169.4,168.4 169.7,168.1 C170,167.8 170.3,167.5 170.6,167.1 C170.9,166.7 171.1,166.2 171.2,165.7 C171.2,165.5 171.3,165.3 171.3,165.1 C171.3,164.9 171.3,164.7 171.3,164.6 C171.3,164.1 171.2,163.7 170.9,163.5 C170.7,163.2 170.3,163.1 169.9,163.1 C169.5,163.1 169.2,163.2 168.8,163.4 C168.5,163.6 168.2,163.9 168,164.3 C167.8,164.7 167.6,165.1 167.5,165.5 C167.4,166 167.3,166.4 167.3,166.9 C167.3,167.4 167.4,167.8 167.6,168.1 C167.8,168.4 168.1,168.5 168.5,168.5 L168.7,168.5 Z" id="Shape"></path>
        <path d="M173.3,169 L174.7,162.6 L175.3,162.6 L175.1,164 L175.1,164 C175.2,163.8 175.4,163.5 175.6,163.3 C175.8,163.1 176,162.9 176.3,162.7 C176.6,162.5 176.9,162.5 177.2,162.5 C177.5,162.5 177.4,162.5 177.6,162.5 C177.7,162.5 177.8,162.5 177.9,162.5 L177.9,163.1 C177.6,163.1 177.4,163.1 177.1,163.1 C176.7,163.1 176.4,163.2 176,163.5 C175.7,163.8 175.4,164.1 175.1,164.5 C174.8,164.9 174.7,165.4 174.6,165.9 L174,169 L173.3,169 L173.3,169 Z" id="Path"></path>
        <path d="M177.9,169 L179.3,162.6 L180,162.6 L178.6,169 L177.9,169 Z M179.9,161.3 C179.8,161.3 179.7,161.3 179.6,161.2 C179.6,161.2 179.5,161 179.5,160.9 C179.5,160.8 179.5,160.6 179.6,160.5 C179.7,160.4 179.8,160.3 180,160.3 C180.2,160.3 180.2,160.3 180.3,160.4 C180.3,160.4 180.3,160.6 180.3,160.7 C180.3,160.9 180.3,161 180.1,161.2 C180,161.3 179.9,161.4 179.7,161.4 L179.9,161.3 Z" id="Shape"></path>
        <path d="M182.6,169.1 C182.1,169.1 181.6,168.9 181.3,168.5 C181,168.1 180.8,167.6 180.8,166.9 C180.8,166.2 180.8,165.8 181,165.3 C181.1,164.8 181.4,164.3 181.6,163.9 C181.9,163.5 182.2,163.1 182.6,162.9 C183,162.7 183.4,162.5 183.9,162.5 C184.4,162.5 184.5,162.5 184.7,162.7 C184.9,162.8 185.1,163 185.2,163.2 C185.3,163.4 185.4,163.6 185.5,163.8 L185.5,163.8 L185.9,162.6 L186.4,162.6 L185.1,169 L184.5,169 L184.7,167.6 L184.7,167.6 C184.5,167.8 184.3,168.1 184.1,168.3 C183.9,168.5 183.6,168.7 183.3,168.9 C183,169.1 182.7,169.1 182.3,169.1 L182.6,169.1 Z M182.8,168.5 C183.1,168.5 183.5,168.4 183.8,168.1 C184.1,167.8 184.4,167.5 184.7,167.1 C185,166.7 185.2,166.2 185.3,165.7 C185.3,165.5 185.4,165.3 185.4,165.1 C185.4,164.9 185.4,164.7 185.4,164.6 C185.4,164.1 185.3,163.7 185,163.5 C184.8,163.2 184.4,163.1 184,163.1 C183.6,163.1 183.3,163.2 182.9,163.4 C182.6,163.6 182.3,163.9 182.1,164.3 C181.9,164.7 181.7,165.1 181.6,165.5 C181.5,166 181.4,166.4 181.4,166.9 C181.4,167.4 181.5,167.8 181.7,168.1 C181.9,168.4 182.2,168.5 182.6,168.5 L182.8,168.5 Z" id="Shape"></path>
        <path d="M187.3,169 L188.7,162.6 L189.3,162.6 L189.1,164 L189.1,164 C189.2,163.8 189.4,163.5 189.6,163.3 C189.8,163.1 190.1,162.9 190.4,162.7 C190.7,162.5 191.1,162.4 191.4,162.4 C191.7,162.4 192.3,162.5 192.6,162.8 C192.9,163.1 193,163.5 193,164 C193,164.5 193,164.3 193,164.5 C193,164.7 193,164.8 193,165 L192.1,169 L191.4,169 L192.3,164.9 C192.3,164.7 192.3,164.6 192.3,164.5 C192.3,164.4 192.3,164.3 192.3,164.2 C192.3,163.8 192.3,163.6 192,163.4 C191.8,163.2 191.5,163.1 191.2,163.1 C190.9,163.1 190.5,163.2 190.1,163.4 C189.7,163.6 189.4,164 189.2,164.4 C188.9,164.8 188.7,165.3 188.6,165.9 L188,168.9 L187.3,168.9 L187.3,169 Z" id="Path"></path>
        <path d="M200.8,169.1 C199.9,169.1 199.1,168.8 198.6,168.2 C198.1,167.6 197.8,166.8 197.8,165.8 C197.8,164.8 197.9,164.4 198.1,163.7 C198.3,163 198.6,162.5 199,161.9 C199.4,161.4 199.9,161 200.5,160.7 C201.1,160.4 201.7,160.3 202.4,160.3 C203.1,160.3 203.9,160.5 204.4,160.8 L204.1,161.4 C203.6,161.1 203,161 202.4,161 C201.8,161 201.3,161.1 200.8,161.4 C200.3,161.7 199.9,162 199.6,162.5 C199.3,163 199,163.5 198.8,164 C198.6,164.6 198.5,165.2 198.5,165.9 C198.5,166.6 198.7,167.4 199.1,167.9 C199.5,168.4 200.1,168.6 200.8,168.6 C201.5,168.6 201.5,168.6 201.8,168.6 C202.1,168.6 202.4,168.5 202.7,168.3 L202.7,168.9 C202.4,169 202.1,169.1 201.8,169.2 C201.5,169.2 201.1,169.3 200.6,169.3 L200.8,169.1 Z" id="Path"></path>
        <path d="M206.3,169.1 C205.8,169.1 205.3,168.9 205,168.5 C204.7,168.1 204.5,167.6 204.5,166.9 C204.5,166.2 204.5,165.8 204.7,165.3 C204.8,164.8 205.1,164.3 205.3,163.9 C205.5,163.5 205.9,163.1 206.3,162.9 C206.7,162.7 207.1,162.5 207.6,162.5 C208.1,162.5 208.2,162.5 208.4,162.7 C208.6,162.8 208.8,163 208.9,163.2 C209,163.4 209.1,163.6 209.2,163.8 L209.2,163.8 L209.6,162.6 L210.1,162.6 L208.8,169 L208.2,169 L208.4,167.6 L208.4,167.6 C208.2,167.8 208,168.1 207.8,168.3 C207.6,168.5 207.3,168.7 207,168.9 C206.7,169.1 206.4,169.1 206,169.1 L206.3,169.1 Z M206.5,168.5 C206.8,168.5 207.2,168.4 207.5,168.1 C207.8,167.8 208.1,167.5 208.4,167.1 C208.7,166.7 208.9,166.2 209,165.7 C209,165.5 209.1,165.3 209.1,165.1 C209.1,164.9 209.1,164.7 209.1,164.6 C209.1,164.1 209,163.7 208.7,163.5 C208.5,163.2 208.1,163.1 207.7,163.1 C207.3,163.1 207,163.2 206.6,163.4 C206.3,163.6 206,163.9 205.8,164.3 C205.6,164.7 205.4,165.1 205.3,165.5 C205.2,166 205.1,166.4 205.1,166.9 C205.1,167.4 205.2,167.8 205.4,168.1 C205.6,168.4 205.9,168.5 206.3,168.5 L206.5,168.5 Z" id="Shape"></path>
        <polygon id="Path" points="211 169 212.9 159.9 213.6 159.9 211.7 169"></polygon>
        <path d="M213.8,169 L215.2,162.6 L215.9,162.6 L214.5,169 L213.8,169 Z M215.9,161.3 C215.8,161.3 215.7,161.3 215.6,161.2 C215.6,161.2 215.5,161 215.5,160.9 C215.5,160.8 215.5,160.6 215.6,160.5 C215.6,160.4 215.8,160.3 216,160.3 C216.2,160.3 216.2,160.3 216.3,160.4 C216.3,160.4 216.3,160.6 216.3,160.7 C216.3,160.9 216.3,161 216.1,161.2 C216,161.3 215.9,161.4 215.7,161.4 L215.9,161.3 Z" id="Shape"></path>
        <path d="M215.5,171.9 C215.2,171.9 215,171.9 214.8,171.8 L214.8,171.2 C214.9,171.2 215,171.2 215.1,171.2 C215.2,171.2 215.3,171.2 215.4,171.2 C215.7,171.2 215.9,171.1 216.1,170.9 C216.3,170.7 216.4,170.4 216.5,170 L218,163.1 L216.9,163.1 L216.9,162.7 C216.9,162.7 218.1,162.5 218.1,162.5 L218.3,161.7 C218.5,161 218.7,160.5 219,160.2 C219.3,159.9 219.8,159.7 220.4,159.7 C221,159.7 220.8,159.7 221,159.7 C221.2,159.7 221.3,159.7 221.5,159.8 L221.3,160.4 C221.2,160.4 221.1,160.4 220.9,160.3 C220.7,160.2 220.6,160.3 220.5,160.3 C220.1,160.3 219.8,160.4 219.6,160.6 C219.4,160.8 219.2,161.2 219.1,161.7 L218.9,162.5 L220.3,162.5 L220.3,163.1 L218.8,163.1 L217.3,170 C217.2,170.6 217,171 216.7,171.3 C216.4,171.6 216.1,171.7 215.6,171.7 L215.5,171.9 Z" id="Path"></path>
        <path d="M222.6,169.1 C221.9,169.1 221.3,168.9 220.9,168.4 C220.5,168 220.3,167.4 220.3,166.6 C220.3,165.8 220.3,165.5 220.5,165 C220.7,164.5 220.9,164.1 221.2,163.7 C221.5,163.3 221.8,163 222.2,162.8 C222.6,162.6 223.1,162.5 223.6,162.5 C224.3,162.5 224.9,162.7 225.3,163.2 C225.7,163.6 225.9,164.2 225.9,165 C225.9,165.8 225.9,166 225.7,166.5 C225.6,167 225.4,167.4 225.1,167.8 C224.8,168.2 224.5,168.5 224.1,168.7 C223.7,168.9 223.2,169 222.7,169 L222.6,169.1 Z M222.7,168.5 C223.2,168.5 223.6,168.3 224,168 C224.4,167.7 224.7,167.3 224.9,166.7 C225.1,166.1 225.2,165.5 225.2,164.8 C225.2,164.1 225.2,164.2 225,163.9 C224.9,163.6 224.7,163.4 224.5,163.2 C224.3,163 224,162.9 223.6,162.9 C223.2,162.9 222.7,163.1 222.3,163.4 C221.9,163.7 221.6,164.1 221.4,164.7 C221.2,165.3 221.1,165.9 221.1,166.5 C221.1,167.1 221.2,167.5 221.5,167.9 C221.8,168.3 222.2,168.4 222.7,168.4 L222.7,168.5 Z" id="Shape"></path>
        <path d="M226.9,169 L228.3,162.6 L228.9,162.6 L228.7,164 L228.7,164 C228.8,163.8 229,163.5 229.2,163.3 C229.4,163.1 229.6,162.9 229.9,162.7 C230.2,162.5 230.5,162.5 230.8,162.5 C231.1,162.5 231,162.5 231.2,162.5 C231.3,162.5 231.4,162.5 231.5,162.5 L231.5,163.1 C231.2,163.1 231,163.1 230.7,163.1 C230.3,163.1 230,163.2 229.6,163.5 C229.2,163.8 229,164.1 228.7,164.5 C228.4,164.9 228.3,165.4 228.2,165.9 L227.6,169 L226.9,169 L226.9,169 Z" id="Path"></path>
        <path d="M231.4,169 L232.8,162.6 L233.4,162.6 L233.2,164 L233.2,164 C233.3,163.8 233.5,163.5 233.7,163.3 C233.9,163.1 234.2,162.9 234.5,162.7 C234.8,162.5 235.2,162.4 235.5,162.4 C235.8,162.4 236.4,162.5 236.7,162.8 C237,163.1 237.1,163.5 237.1,164 C237.1,164.5 237.1,164.3 237.1,164.5 C237.1,164.7 237.1,164.8 237.1,165 L236.2,169 L235.5,169 L236.4,164.9 C236.4,164.7 236.4,164.6 236.4,164.5 C236.4,164.4 236.4,164.3 236.4,164.2 C236.4,163.8 236.4,163.6 236.1,163.4 C235.9,163.2 235.6,163.1 235.3,163.1 C235,163.1 234.6,163.2 234.2,163.4 C233.8,163.6 233.5,164 233.3,164.4 C233,164.8 232.8,165.3 232.7,165.9 L232.1,168.9 L231.4,168.9 L231.4,169 Z" id="Path"></path>
        <path d="M238.3,169 L239.7,162.6 L240.4,162.6 L239,169 L238.3,169 Z M240.3,161.3 C240.2,161.3 240.1,161.3 240,161.2 C240,161.2 239.9,161 239.9,160.9 C239.9,160.8 239.9,160.6 240,160.5 C240,160.4 240.2,160.3 240.4,160.3 C240.6,160.3 240.6,160.3 240.7,160.4 C240.7,160.4 240.7,160.6 240.7,160.7 C240.7,160.9 240.7,161 240.5,161.2 C240.4,161.3 240.3,161.4 240.1,161.4 L240.3,161.3 Z" id="Shape"></path>
        <path d="M243,169.1 C242.5,169.1 242,168.9 241.7,168.5 C241.4,168.1 241.2,167.6 241.2,166.9 C241.2,166.2 241.2,165.8 241.4,165.3 C241.5,164.8 241.8,164.3 242,163.9 C242.2,163.5 242.6,163.1 243,162.9 C243.4,162.7 243.8,162.5 244.3,162.5 C244.8,162.5 244.9,162.5 245.1,162.7 C245.3,162.8 245.5,163 245.6,163.2 C245.7,163.4 245.8,163.6 245.9,163.8 L245.9,163.8 L246.3,162.6 L246.8,162.6 L245.5,169 L244.9,169 L245.1,167.6 L245.1,167.6 C244.9,167.8 244.7,168.1 244.5,168.3 C244.3,168.5 244,168.7 243.7,168.9 C243.4,169.1 243.1,169.1 242.7,169.1 L243,169.1 Z M243.2,168.5 C243.5,168.5 243.9,168.4 244.2,168.1 C244.5,167.8 244.8,167.5 245.1,167.1 C245.4,166.7 245.6,166.2 245.7,165.7 C245.7,165.5 245.8,165.3 245.8,165.1 C245.8,164.9 245.8,164.7 245.8,164.6 C245.8,164.1 245.7,163.7 245.4,163.5 C245.2,163.2 244.8,163.1 244.4,163.1 C244,163.1 243.7,163.2 243.3,163.4 C243,163.6 242.7,163.9 242.5,164.3 C242.3,164.7 242.1,165.1 242,165.5 C241.9,166 241.8,166.4 241.8,166.9 C241.8,167.4 241.9,167.8 242.1,168.1 C242.3,168.4 242.6,168.5 243,168.5 L243.2,168.5 Z" id="Shape"></path>
        <path d="M247.7,169 L249.1,162.6 L249.7,162.6 L249.5,164 L249.5,164 C249.6,163.8 249.8,163.5 250,163.3 C250.2,163.1 250.5,162.9 250.8,162.7 C251.1,162.5 251.5,162.4 251.9,162.4 C252.3,162.4 252.8,162.5 253.1,162.8 C253.4,163.1 253.5,163.5 253.5,164 C253.5,164.5 253.5,164.3 253.5,164.5 C253.5,164.7 253.5,164.8 253.5,165 L252.6,169 L251.9,169 L252.8,164.9 C252.8,164.7 252.8,164.6 252.8,164.5 C252.8,164.4 252.8,164.3 252.8,164.2 C252.8,163.8 252.8,163.6 252.5,163.4 C252.2,163.2 252,163.1 251.7,163.1 C251.4,163.1 251,163.2 250.6,163.4 C250.2,163.6 249.9,164 249.7,164.4 C249.4,164.8 249.2,165.3 249.1,165.9 L248.5,168.9 L247.8,168.9 L247.7,169 Z" id="Path"></path>
        <polygon id="Path" points="149 183.4 150.7 175.5 148.2 175.5 148.2 174.9 154.1 174.9 154.1 175.5 151.4 175.5 149.7 183.4 149 183.4"></polygon>
        <path d="M155.1,183.5 C154.4,183.5 153.9,183.3 153.5,182.9 C153.1,182.5 152.9,181.9 152.9,181.1 C152.9,180.3 152.9,180 153.1,179.5 C153.3,179 153.5,178.6 153.8,178.2 C154.1,177.8 154.4,177.5 154.8,177.3 C155.2,177.1 155.6,177 156.1,177 C156.6,177 157,177.1 157.3,177.4 C157.6,177.7 157.7,178 157.7,178.4 C157.7,179.1 157.4,179.6 156.7,180 C156,180.4 155.1,180.5 153.9,180.5 L153.6,180.5 C153.6,180.7 153.6,180.9 153.6,181.1 C153.6,181.7 153.7,182.1 154,182.5 C154.3,182.9 154.7,183 155.3,183 C155.9,183 155.9,183 156.2,182.9 C156.5,182.9 156.7,182.7 157,182.6 L157,183.2 C156.8,183.3 156.5,183.4 156.2,183.5 C155.9,183.5 155.6,183.6 155.2,183.6 L155.1,183.5 Z M153.7,179.9 L154,179.9 C154.6,179.9 155.1,179.9 155.6,179.7 C156.1,179.7 156.4,179.4 156.7,179.2 C157,179 157.1,178.7 157.1,178.3 C157.1,177.9 157.1,177.8 156.8,177.7 C156.5,177.6 156.4,177.4 156,177.4 C155.6,177.4 155.4,177.4 155,177.7 C154.7,177.9 154.4,178.2 154.2,178.5 C154,178.9 153.8,179.3 153.6,179.8 L153.7,179.9 Z" id="Shape"></path>
        <path d="M161.1,183.5 C160.4,183.5 159.8,183.3 159.4,182.9 C159,182.5 158.8,181.9 158.8,181.1 C158.8,180.3 158.8,180 159,179.5 C159.2,179 159.4,178.5 159.7,178.2 C160,177.9 160.3,177.5 160.8,177.3 C161.3,177.1 161.7,177 162.2,177 C162.7,177 163.3,177 163.7,177.3 L163.5,177.9 C163.3,177.9 163.1,177.8 162.9,177.7 C162.7,177.7 162.4,177.7 162.2,177.7 C161.7,177.7 161.2,177.9 160.8,178.2 C160.4,178.5 160.1,179 159.9,179.5 C159.7,180 159.6,180.6 159.6,181.3 C159.6,182 159.7,182.3 160,182.6 C160.3,182.9 160.7,183.1 161.3,183.1 C161.9,183.1 161.9,183.1 162.1,183 C162.3,183 162.6,182.8 162.8,182.7 L162.8,183.3 C162.6,183.4 162.4,183.5 162.1,183.6 C161.8,183.6 161.5,183.7 161.2,183.7 L161.1,183.5 Z" id="Path"></path>
        <path d="M163.9,183.4 L165.8,174.3 L166.5,174.3 L166,176.7 C166,177 165.9,177.3 165.8,177.6 C165.7,177.9 165.6,178.2 165.6,178.5 L165.6,178.5 C165.8,178.3 165.9,178 166.2,177.8 C166.4,177.6 166.7,177.4 167,177.2 C167.3,177 167.7,177 168,177 C168.3,177 168.9,177.1 169.2,177.4 C169.5,177.7 169.6,178.1 169.6,178.6 C169.6,179.1 169.6,178.9 169.6,179 C169.6,179.2 169.6,179.3 169.6,179.5 L168.8,183.5 L168.1,183.5 L169,179.4 C169,179.2 169,179.1 169,179 C169,178.9 169,178.8 169,178.7 C169,178 168.6,177.6 167.9,177.6 C167.2,177.6 167.2,177.7 166.8,177.9 C166.4,178.1 166.1,178.5 165.9,178.9 C165.6,179.3 165.4,179.8 165.3,180.4 L164.7,183.4 L164,183.4 L163.9,183.4 Z" id="Path"></path>
        <path d="M170.7,183.4 L172.1,177 L172.7,177 L172.5,178.4 L172.5,178.4 C172.6,178.2 172.8,177.9 173,177.7 C173.2,177.5 173.5,177.3 173.8,177.1 C174.1,176.9 174.5,176.8 174.8,176.8 C175.1,176.8 175.7,176.9 176,177.2 C176.3,177.5 176.4,177.9 176.4,178.4 C176.4,178.9 176.4,178.7 176.4,178.9 C176.4,179.1 176.4,179.2 176.4,179.4 L175.5,183.4 L174.8,183.4 L175.7,179.3 C175.7,179.1 175.7,179 175.7,178.9 C175.7,178.8 175.7,178.7 175.7,178.6 C175.7,178.2 175.7,178 175.4,177.8 C175.2,177.6 174.9,177.5 174.6,177.5 C174.3,177.5 173.9,177.6 173.5,177.8 C173.1,178 172.8,178.4 172.6,178.8 C172.3,179.2 172.1,179.7 172,180.3 L171.4,183.3 L170.7,183.3 L170.7,183.4 Z" id="Path"></path>
        <path d="M180,183.5 C179.3,183.5 178.7,183.3 178.3,182.8 C177.9,182.4 177.7,181.8 177.7,181 C177.7,180.2 177.7,179.9 177.9,179.4 C178.1,178.9 178.3,178.5 178.6,178.1 C178.9,177.7 179.2,177.4 179.6,177.2 C180,177 180.5,176.9 181,176.9 C181.7,176.9 182.3,177.1 182.7,177.6 C183.1,178 183.3,178.6 183.3,179.4 C183.3,180.2 183.3,180.4 183.1,180.9 C183,181.4 182.8,181.8 182.5,182.2 C182.2,182.6 181.9,182.9 181.5,183.1 C181.1,183.3 180.6,183.4 180.1,183.4 L180,183.5 Z M180.1,182.9 C180.6,182.9 181,182.7 181.4,182.4 C181.8,182.1 182.1,181.7 182.3,181.1 C182.5,180.5 182.6,179.9 182.6,179.2 C182.6,178.5 182.6,178.6 182.4,178.3 C182.3,178 182.1,177.8 181.9,177.6 C181.7,177.4 181.4,177.3 181,177.3 C180.6,177.3 180.1,177.5 179.7,177.8 C179.3,178.1 179,178.5 178.8,179.1 C178.6,179.7 178.5,180.3 178.5,180.9 C178.5,181.5 178.6,181.9 178.9,182.3 C179.2,182.7 179.6,182.8 180.1,182.8 L180.1,182.9 Z" id="Shape"></path>
        <polygon id="Path" points="184.3 183.4 186.2 174.3 186.9 174.3 185 183.4"></polygon>
        <path d="M189.6,183.5 C188.9,183.5 188.3,183.3 187.9,182.8 C187.5,182.4 187.3,181.8 187.3,181 C187.3,180.2 187.3,179.9 187.5,179.4 C187.7,178.9 187.9,178.5 188.2,178.1 C188.5,177.7 188.8,177.4 189.2,177.2 C189.6,177 190.1,176.9 190.6,176.9 C191.3,176.9 191.9,177.1 192.3,177.6 C192.7,178 192.9,178.6 192.9,179.4 C192.9,180.2 192.9,180.4 192.7,180.9 C192.6,181.4 192.4,181.8 192.1,182.2 C191.8,182.6 191.5,182.9 191.1,183.1 C190.7,183.3 190.2,183.4 189.7,183.4 L189.6,183.5 Z M189.6,182.9 C190.1,182.9 190.5,182.7 190.9,182.4 C191.3,182.1 191.6,181.7 191.8,181.1 C192,180.5 192.1,179.9 192.1,179.2 C192.1,178.5 192.1,178.6 191.9,178.3 C191.8,178 191.6,177.8 191.4,177.6 C191.2,177.4 190.9,177.3 190.5,177.3 C190.1,177.3 189.6,177.5 189.2,177.8 C188.8,178.1 188.5,178.5 188.3,179.1 C188.1,179.7 188,180.3 188,180.9 C188,181.5 188.1,181.9 188.4,182.3 C188.7,182.7 189.1,182.8 189.6,182.8 L189.6,182.9 Z" id="Shape"></path>
        <path d="M195.6,186.3 C195.2,186.3 194.9,186.3 194.6,186.2 C194.3,186.1 194,186 193.8,185.9 L193.8,185.3 C194,185.4 194.3,185.5 194.6,185.6 C194.9,185.6 195.3,185.7 195.6,185.7 C196.2,185.7 196.7,185.5 197.1,185.2 C197.5,184.9 197.7,184.4 197.8,183.8 L197.8,183.3 C198,183.1 198,183 198,182.8 C198,182.6 198,182.4 198.1,182.3 C198.1,182.1 198.1,182 198.1,182 L198.1,182 C197.9,182.3 197.7,182.5 197.5,182.8 C197.3,183.1 197,183.2 196.7,183.4 C196.4,183.6 196.1,183.6 195.7,183.6 C195.1,183.6 194.7,183.4 194.4,183 C194.1,182.6 193.9,182.1 193.9,181.4 C193.9,180.7 193.9,180.3 194.1,179.8 C194.2,179.3 194.4,178.8 194.7,178.4 C195,178 195.3,177.6 195.7,177.4 C196.1,177.1 196.6,177 197.1,177 C197.6,177 197.7,177 198,177.2 C198.2,177.3 198.4,177.5 198.6,177.7 C198.7,177.9 198.8,178.1 198.9,178.3 L198.9,178.3 L199.3,177.1 L199.8,177.1 L198.4,183.8 C198.2,184.6 197.9,185.3 197.4,185.7 C196.9,186.1 196.3,186.3 195.5,186.3 L195.6,186.3 Z M196,182.9 C196.3,182.9 196.6,182.8 197,182.6 C197.3,182.4 197.6,182.1 197.9,181.7 C198.2,181.3 198.4,180.9 198.5,180.5 C198.6,180.1 198.7,179.5 198.7,179 C198.7,178.5 198.6,178.1 198.3,177.8 C198.1,177.5 197.7,177.4 197.2,177.4 C196.7,177.4 196.4,177.5 196.1,177.7 C195.8,177.9 195.5,178.2 195.3,178.6 C195.1,179 194.9,179.4 194.8,179.8 C194.7,180.3 194.6,180.7 194.6,181.2 C194.6,181.7 194.7,182.1 194.9,182.4 C195.1,182.7 195.4,182.8 195.9,182.8 L196,182.9 Z" id="Shape"></path>
        <path d="M199.9,186.3 C199.7,186.3 199.6,186.3 199.5,186.3 C199.4,186.3 199.3,186.3 199.2,186.3 L199.2,185.7 C199.3,185.7 199.4,185.7 199.5,185.7 C199.6,185.7 199.7,185.7 199.9,185.7 C200.2,185.7 200.5,185.6 200.7,185.4 C200.9,185.2 201.2,184.9 201.4,184.4 L202,183.4 L201,177 L201.7,177 L202.3,180.7 C202.3,181.1 202.4,181.5 202.4,181.8 C202.4,182.2 202.4,182.5 202.4,182.7 L202.4,182.7 C202.4,182.6 202.5,182.4 202.6,182.2 C202.6,182 202.8,181.8 202.9,181.5 C203,181.3 203.1,181 203.2,180.8 L205.4,176.9 L206.1,176.9 L201.9,184.5 C201.6,185 201.3,185.5 201,185.7 C200.7,185.9 200.3,186.1 199.8,186.1 L199.9,186.3 Z" id="Path"></path>
        <path d="M212.6,183.5 C211.7,183.5 210.9,183.2 210.4,182.6 C209.9,182 209.6,181.2 209.6,180.2 C209.6,179.2 209.7,178.8 209.9,178.1 C210.1,177.4 210.4,176.9 210.8,176.3 C211.2,175.8 211.7,175.4 212.3,175.1 C212.9,174.8 213.5,174.7 214.2,174.7 C214.9,174.7 215.7,174.9 216.2,175.2 L215.9,175.8 C215.4,175.5 214.8,175.4 214.2,175.4 C213.6,175.4 213.1,175.5 212.6,175.8 C212.1,176.1 211.7,176.4 211.4,176.9 C211.1,177.4 210.8,177.9 210.6,178.4 C210.4,179 210.3,179.6 210.3,180.3 C210.3,181 210.5,181.8 210.9,182.3 C211.3,182.8 211.9,183 212.6,183 C213.3,183 213.3,183 213.6,183 C213.9,183 214.2,182.9 214.5,182.7 L214.5,183.3 C214.2,183.4 213.9,183.5 213.6,183.6 C213.3,183.6 212.9,183.7 212.4,183.7 L212.6,183.5 Z" id="Path"></path>
        <path d="M218.7,183.5 C218,183.5 217.5,183.3 217.1,182.9 C216.7,182.5 216.5,181.9 216.5,181.1 C216.5,180.3 216.5,180 216.7,179.5 C216.9,179 217.1,178.6 217.4,178.2 C217.7,177.8 218,177.5 218.4,177.3 C218.8,177.1 219.2,177 219.7,177 C220.2,177 220.6,177.1 220.9,177.4 C221.2,177.7 221.3,178 221.3,178.4 C221.3,179.1 221,179.6 220.3,180 C219.6,180.4 218.7,180.5 217.5,180.5 L217.2,180.5 C217.2,180.7 217.2,180.9 217.2,181.1 C217.2,181.7 217.3,182.1 217.6,182.5 C217.9,182.9 218.3,183 218.9,183 C219.5,183 219.5,183 219.8,182.9 C220.1,182.9 220.3,182.7 220.6,182.6 L220.6,183.2 C220.4,183.3 220.1,183.4 219.8,183.5 C219.5,183.6 219.2,183.6 218.8,183.6 L218.7,183.5 Z M217.3,179.9 L217.6,179.9 C218.2,179.9 218.7,179.9 219.2,179.7 C219.7,179.7 220,179.4 220.3,179.2 C220.6,179 220.7,178.7 220.7,178.3 C220.7,177.9 220.7,177.8 220.4,177.7 C220.1,177.6 220,177.4 219.6,177.4 C219.2,177.4 219,177.4 218.6,177.7 C218.3,177.9 218,178.2 217.8,178.5 C217.6,178.9 217.4,179.3 217.2,179.8 L217.3,179.9 Z" id="Shape"></path>
        <path d="M222.1,183.4 L223.5,177 L224.1,177 L223.9,178.4 L223.9,178.4 C224,178.2 224.2,177.9 224.4,177.7 C224.6,177.5 224.9,177.3 225.2,177.1 C225.5,176.9 225.9,176.8 226.2,176.8 C226.5,176.8 227.1,176.9 227.4,177.2 C227.7,177.5 227.8,177.9 227.8,178.4 C227.8,178.9 227.8,178.7 227.8,178.9 C227.8,179.1 227.8,179.2 227.8,179.4 L226.9,183.4 L226.2,183.4 L227.1,179.3 C227.1,179.1 227.1,179 227.1,178.9 C227.1,178.8 227.1,178.7 227.1,178.6 C227.1,178.2 227.1,178 226.8,177.8 C226.6,177.6 226.3,177.5 226,177.5 C225.7,177.5 225.3,177.6 224.9,177.8 C224.5,178 224.2,178.4 224,178.8 C223.7,179.2 223.5,179.7 223.4,180.3 L222.8,183.3 L222.1,183.3 L222.1,183.4 Z" id="Path"></path>
        <path d="M230.5,183.5 C230.1,183.5 229.8,183.4 229.5,183.2 C229.3,183 229.1,182.7 229.1,182.3 C229.1,181.9 229.1,182.1 229.1,181.9 C229.1,181.8 229.1,181.6 229.1,181.5 L229.9,177.6 L228.9,177.6 L228.9,177.2 C228.9,177.2 230,176.9 230,176.9 L230.6,175.5 L231,175.5 L230.7,177 L232.5,177 L232.5,177.6 L230.6,177.6 L229.8,181.5 C229.8,181.6 229.8,181.7 229.8,181.9 C229.8,182 229.8,182.1 229.8,182.3 C229.8,182.5 229.8,182.7 230,182.8 C230.1,182.9 230.3,183 230.6,183 C230.9,183 230.9,183 231.1,183 C231.3,183 231.4,183 231.5,182.9 L231.5,183.5 C231.4,183.5 231.2,183.5 231.1,183.6 C231,183.7 230.7,183.6 230.6,183.6 L230.5,183.5 Z" id="Path"></path>
        <path d="M235.3,183.5 C234.6,183.5 234.1,183.3 233.7,182.9 C233.3,182.5 233.1,181.9 233.1,181.1 C233.1,180.3 233.1,180 233.3,179.5 C233.5,179 233.7,178.6 234,178.2 C234.3,177.8 234.6,177.5 235,177.3 C235.4,177.1 235.8,177 236.3,177 C236.8,177 237.2,177.1 237.5,177.4 C237.8,177.7 237.9,178 237.9,178.4 C237.9,179.1 237.6,179.6 236.9,180 C236.2,180.4 235.3,180.5 234.1,180.5 L233.8,180.5 C233.8,180.7 233.8,180.9 233.8,181.1 C233.8,181.7 233.9,182.1 234.2,182.5 C234.5,182.9 234.9,183 235.5,183 C236.1,183 236.1,183 236.4,182.9 C236.7,182.9 236.9,182.7 237.2,182.6 L237.2,183.2 C237,183.3 236.7,183.4 236.4,183.5 C236.1,183.6 235.8,183.6 235.4,183.6 L235.3,183.5 Z M233.9,179.9 L234.2,179.9 C234.8,179.9 235.3,179.9 235.8,179.7 C236.3,179.7 236.6,179.4 236.9,179.2 C237.2,179 237.3,178.7 237.3,178.3 C237.3,177.9 237.3,177.8 237,177.7 C236.7,177.6 236.6,177.4 236.2,177.4 C235.8,177.4 235.6,177.4 235.2,177.7 C234.9,177.9 234.6,178.2 234.4,178.5 C234.2,178.9 234,179.3 233.8,179.8 L233.9,179.9 Z" id="Shape"></path>
        <path d="M238.7,183.4 L240.1,177 L240.7,177 L240.5,178.4 L240.5,178.4 C240.6,178.2 240.8,177.9 241,177.7 C241.2,177.5 241.4,177.3 241.7,177.1 C242,176.9 242.3,176.9 242.6,176.9 C242.9,176.9 242.8,176.9 243,176.9 C243.1,176.9 243.2,176.9 243.3,176.9 L243.3,177.5 C243,177.5 242.8,177.5 242.5,177.5 C242.1,177.5 241.8,177.6 241.4,177.9 C241.1,178.2 240.8,178.5 240.5,178.9 C240.2,179.3 240.1,179.8 240,180.3 L239.4,183.4 L238.7,183.4 L238.7,183.4 Z" id="Path"></path>
      </g>
      <g id="text1" transform="translate(-6, -70)" fill="#77787B">
        <path d="M147.6,96.2 L154.1,96.2 C156.9,96.2 159,96.6 160.4,97.4 C161.8,98.2 162.5,99.6 162.5,101.6 C162.5,103.6 162.2,103.9 161.6,104.7 C161,105.5 160.1,106.1 158.9,106.3 L158.9,106.5 C159.7,106.7 160.4,106.9 161,107.3 C161.6,107.7 162.1,108.2 162.5,108.9 C162.9,109.6 163.1,110.5 163.1,111.6 C163.1,113.5 162.4,115.1 161,116.1 C159.6,117.1 157.8,117.7 155.4,117.7 L147.6,117.7 L147.6,96.3 L147.6,96.2 Z M151.5,104.9 L154.6,104.9 C156.1,104.9 157.2,104.7 157.7,104.2 C158.2,103.7 158.6,103 158.6,102.1 C158.6,101.2 158.3,100.4 157.6,100 C156.9,99.6 155.8,99.4 154.3,99.4 L151.5,99.4 L151.5,104.9 L151.5,104.9 Z M151.5,108 L151.5,114.4 L155,114.4 C156.6,114.4 157.6,114.1 158.3,113.5 C159,112.9 159.2,112.1 159.2,111.1 C159.2,110.1 158.9,109.4 158.3,108.9 C157.7,108.4 156.5,108.1 154.9,108.1 L151.6,108.1 L151.5,108 Z" id="Shape"></path>
        <path d="M173.7,101 C175.8,101 177.4,101.5 178.5,102.4 C179.6,103.3 180.1,104.7 180.1,106.7 L180.1,117.6 L177.4,117.6 L176.6,115.4 L176.5,115.4 C175.8,116.3 175.1,116.9 174.3,117.3 C173.5,117.7 172.5,117.9 171.1,117.9 C169.7,117.9 168.4,117.5 167.5,116.7 C166.5,115.9 166.1,114.6 166.1,112.9 C166.1,111.2 166.7,110 167.9,109.1 C169.1,108.3 171,107.8 173.5,107.7 L176.3,107.7 L176.3,106.8 C176.3,105.8 176.1,105 175.5,104.6 C175,104.2 174.3,103.9 173.4,103.9 C172.5,103.9 171.8,104 171,104.2 C170.2,104.4 169.5,104.7 168.8,105.1 L167.6,102.5 C168.4,102.1 169.3,101.7 170.3,101.5 C171.3,101.2 172.4,101.1 173.5,101.1 L173.7,101 Z M176.3,109.9 L174.3,109.9 C172.6,110 171.5,110.3 170.8,110.8 C170.2,111.3 169.8,112 169.8,112.9 C169.8,113.8 170,114.2 170.5,114.6 C171,115 171.5,115.1 172.3,115.1 C173.4,115.1 174.3,114.8 175.1,114.2 C175.9,113.6 176.2,112.6 176.2,111.4 L176.2,110 L176.3,109.9 Z" id="Shape"></path>
        <path d="M194.3,99.1 C192.4,99.1 190.8,99.8 189.8,101.2 C188.7,102.6 188.2,104.5 188.2,106.9 C188.2,109.3 188.7,111.2 189.7,112.6 C190.7,114 192.2,114.6 194.3,114.6 C196.4,114.6 196.1,114.6 197,114.3 C197.9,114.1 198.8,113.9 199.7,113.5 L199.7,116.8 C198.8,117.2 197.9,117.4 197,117.6 C196.1,117.8 195.1,117.8 193.9,117.8 C191.7,117.8 189.9,117.3 188.4,116.4 C187,115.5 185.9,114.2 185.2,112.6 C184.5,111 184.2,109 184.2,106.8 C184.2,104.6 184.6,102.7 185.4,101.1 C186.2,99.4 187.3,98.2 188.8,97.2 C190.3,96.3 192.2,95.8 194.3,95.8 C196.4,95.8 196.4,95.9 197.5,96.2 C198.5,96.4 199.5,96.8 200.5,97.3 L199.2,100.4 C198.4,100.1 197.7,99.8 196.8,99.5 C196,99.2 195.2,99.1 194.3,99.1 L194.3,99.1 Z" id="Path"></path>
        <path d="M210.4,101 C212.5,101 214.1,101.5 215.2,102.4 C216.3,103.3 216.8,104.7 216.8,106.7 L216.8,117.6 L214.1,117.6 L213.3,115.4 L213.2,115.4 C212.5,116.3 211.8,116.9 211,117.3 C210.2,117.7 209.2,117.9 207.8,117.9 C206.4,117.9 205.1,117.5 204.2,116.7 C203.3,115.9 202.8,114.6 202.8,112.9 C202.8,111.2 203.4,110 204.6,109.1 C205.8,108.3 207.7,107.8 210.2,107.7 L213,107.7 L213,106.8 C213,105.8 212.7,105 212.2,104.6 C211.7,104.2 211,103.9 210.1,103.9 C209.2,103.9 208.5,104 207.7,104.2 C206.9,104.4 206.2,104.7 205.5,105.1 L204.3,102.5 C205.1,102.1 206,101.7 207,101.5 C208,101.3 209.1,101.1 210.2,101.1 L210.4,101 Z M213,109.9 L211,109.9 C209.3,110 208.2,110.3 207.5,110.8 C206.9,111.3 206.5,112 206.5,112.9 C206.5,113.8 206.7,114.2 207.2,114.6 C207.6,114.9 208.2,115.1 209,115.1 C210.1,115.1 211,114.8 211.8,114.2 C212.6,113.6 212.9,112.6 212.9,111.4 L212.9,110 L213,109.9 Z" id="Shape"></path>
        <polygon id="Path" points="227.3 117.6 223.5 117.6 223.5 99.4 217.3 99.4 217.3 96.2 233.4 96.2 233.4 99.4 227.2 99.4 227.2 117.6"></polygon>
        <path d="M240.8,101 C243,101 244.7,101.6 246,102.9 C247.3,104.2 247.9,106 247.9,108.3 L247.9,110.2 L237.2,110.2 C237.2,111.7 237.7,112.8 238.4,113.6 C239.2,114.4 240.3,114.8 241.6,114.8 C242.9,114.8 243.6,114.7 244.4,114.5 C245.2,114.3 246.1,114 247,113.6 L247,116.6 C246.2,117 245.4,117.3 244.5,117.4 C243.6,117.6 242.6,117.7 241.4,117.7 C240.2,117.7 238.4,117.4 237.2,116.8 C236,116.2 235,115.3 234.3,114 C233.6,112.8 233.3,111.2 233.3,109.4 C233.3,106.6 234,104.5 235.4,103 C236.8,101.5 238.6,100.8 240.8,100.8 L240.8,101 Z M240.8,103.8 C239.8,103.8 239,104.1 238.3,104.8 C237.7,105.5 237.3,106.4 237.2,107.7 L244.2,107.7 C244.2,106.6 243.9,105.7 243.3,104.9 C242.7,104.2 241.9,103.8 240.7,103.8 L240.8,103.8 Z" id="Shape"></path>
        <path d="M261.2,99.1 C259.3,99.1 257.7,99.8 256.7,101.2 C255.6,102.6 255.1,104.5 255.1,106.9 C255.1,109.3 255.6,111.2 256.6,112.6 C257.6,114 259.1,114.6 261.2,114.6 C263.3,114.6 263,114.6 263.9,114.3 C264.8,114.1 265.7,113.9 266.6,113.5 L266.6,116.8 C265.7,117.2 264.8,117.4 263.9,117.6 C263,117.8 262,117.8 260.8,117.8 C258.6,117.8 256.8,117.3 255.3,116.4 C253.9,115.5 252.8,114.2 252.1,112.6 C251.4,111 251.1,109 251.1,106.8 C251.1,104.6 251.5,102.7 252.3,101.1 C253.1,99.4 254.2,98.2 255.7,97.2 C257.2,96.3 259.1,95.8 261.2,95.8 C263.3,95.8 263.3,95.9 264.4,96.2 C265.4,96.4 266.4,96.8 267.4,97.3 L266.1,100.4 C265.3,100.1 264.6,99.8 263.7,99.5 C262.9,99.2 262.1,99.1 261.2,99.1 L261.2,99.1 Z" id="Path"></path>
      </g>
    </g>
  </g>
</svg>
